<?xml version="1.0" encoding="UTF-8"?><svg id="Layer_2" xmlns="http://www.w3.org/2000/svg" viewBox="0 0 769.9 376.52"><defs><style>.cls-1{fill:#ee322e;}.cls-2{fill:#fff;}.cls-3{fill:#ffce27;}.cls-4{fill:#d0d3d6;}.cls-5{fill:#d71f26;}.cls-6{fill:#234187;}.cls-7{fill:#414042;}</style></defs><g id="Layer_1-2"><path class="cls-7" d="m93.67,145.84l10.81-4.63v-3.05l-10.81,5.08v2.6h0Zm3.25,30.2h13.17l.49-3.05h-12.97c-4.1,0-5.93-1.83-5.93-5.77v-4.43h15.69v-2.93h-15.69v-9.23h18.62l-.53-3.05h-21.54v19.91c0,5.73,2.93,8.54,8.7,8.54h0Zm28.19,0h12.4l.49-3.05h-12.15c-4.11,0-5.93-1.83-5.93-5.77v-19.63h-3.45v19.96c0,5.73,2.89,8.49,8.66,8.49h0Zm34.59-28.45l-5.77,11.22c-1.34,2.44-2.64,3.66-4.55,3.66s-3.21-1.18-4.55-3.66l-5.81-11.22h-3.94l6.34,12.07c1.83,3.49,3.7,5.32,6.22,5.89v10.49h3.46v-10.49c2.48-.57,4.35-2.44,6.14-5.89l6.34-12.07h-3.86Zm7.48,28.45h14.27c6.46,0,9.84-2.76,9.84-7.56s-3.33-7.07-9.19-8.25l-5.24-1.06c-4.02-.81-6.22-2.19-6.22-4.8,0-2.44,1.63-3.74,5.77-3.74h13.09l-.53-3.05h-12.64c-6.22,0-9.23,2.56-9.23,6.83s3.13,6.67,8.78,7.76l5.16,1.06c4.15.81,6.71,2.24,6.71,5.28s-2.03,4.47-6.42,4.47h-14.63l.49,3.05h0Zm35.52-30.2l10.81-4.63v-3.05l-10.81,5.08v2.6h0Zm3.25,30.2h13.17l.49-3.05h-12.96c-4.11,0-5.93-1.83-5.93-5.77v-4.43h15.69v-2.93h-15.69v-9.23h18.61l-.53-3.05h-21.54v19.91c0,5.73,2.93,8.54,8.7,8.54h0Zm28.23,0h13.17l.49-3.05h-12.96c-4.1,0-5.93-1.83-5.93-5.77v-4.43h15.69v-2.93h-15.69v-9.23h18.61l-.53-3.05h-21.54v19.91c0,5.73,2.93,8.54,8.7,8.54h0Zm17.55-11.66h14.84v-2.85h-14.84v2.85h0Zm32.37,12.07c3.21,0,5.57-1.42,7.07-5.98l7.72-22.88h-3.74l-7.19,21.99c-.89,2.68-2.15,3.62-3.86,3.62s-3.05-.93-3.94-3.62l-7.15-21.99h-3.78l7.68,22.88c1.54,4.55,3.94,5.98,7.19,5.98h0Zm29.02-.41h13.17l.49-3.05h-12.96c-4.11,0-5.93-1.83-5.93-5.77v-4.43h15.69v-2.93h-15.69v-9.23h18.61l-.53-3.05h-21.54v19.91c0,5.73,2.93,8.54,8.7,8.54h0Zm34.92-10.16c5.85-.73,8.7-4.1,8.7-9.06,0-5.61-3.7-9.23-11.3-9.23h-12.52v28.45h3.46v-25.4h8.86c5.57,0,7.97,2.32,7.97,6.18s-2.4,6.18-7.97,6.18h-2.24v2.15l9.96,10.89h4.43l-9.35-10.16h0Zm39.66-18.29h-27.03v3.05h11.79v25.4h3.46v-25.4h11.79v-3.05h0Zm20.68,18.29c5.85-.73,8.7-4.1,8.7-9.06,0-5.61-3.7-9.23-11.3-9.23h-12.52v28.45h3.45v-25.4h8.86c5.57,0,7.97,2.32,7.97,6.18s-2.4,6.18-7.97,6.18h-2.24v2.15l9.96,10.89h4.43l-9.35-10.16h0Zm40.86,10.16h3.78l-8.25-22.88c-1.67-4.51-3.94-5.97-7.19-5.97s-5.45,1.46-7.07,5.97l-8.25,22.88h3.7l2.97-8.41h17.36l2.97,8.41h0Zm-19.26-11.42l3.7-10.53c.98-2.68,2.16-3.66,3.9-3.66s3.01.97,3.94,3.66l3.7,10.53h-15.24Zm47.8-2.32v10.69h-6.87c-7.72,0-11.38-3.58-11.38-11.18s3.66-11.18,11.38-11.18h9.47l-.49-3.05h-8.98c-10.12,0-14.92,4.55-14.92,14.22s4.8,14.22,14.92,14.22h10.32v-13.74h-3.46Z"/><path class="cls-7" d="m27.03,204.25H0v3.05h11.79v25.4h3.45v-25.4h11.79v-3.05h0Zm20.68,18.29c5.85-.73,8.7-4.11,8.7-9.06,0-5.61-3.7-9.23-11.3-9.23h-12.52v28.45h3.45v-25.4h8.86c5.57,0,7.97,2.32,7.97,6.18s-2.4,6.18-7.97,6.18h-2.24v2.15l9.96,10.89h4.43l-9.35-10.16h0Zm40.86,10.16h3.78l-8.25-22.88c-1.67-4.51-3.94-5.98-7.19-5.98s-5.45,1.46-7.07,5.98l-8.25,22.88h3.7l2.97-8.41h17.35l2.97,8.41h0Zm-19.26-11.42l3.7-10.53c.98-2.68,2.15-3.66,3.9-3.66s3.01.98,3.94,3.66l3.7,10.53h-15.24Zm28.64,11.42h3.46v-28.45h-3.46v28.45h0Zm35.96-28.45h-27.03v3.05h11.79v25.4h3.45v-25.4h11.79v-3.05h0Zm10.89-1.75l10.81-4.63v-3.05l-10.81,5.08v2.6h0Zm3.25,30.2h13.17l.49-3.05h-12.97c-4.1,0-5.93-1.83-5.93-5.77v-4.43h15.69v-2.93h-15.69v-9.23h18.62l-.53-3.05h-21.54v19.92c0,5.73,2.93,8.53,8.7,8.53h0Zm44.06-28.45h-11.22v28.45h11.22c10.04,0,14.79-4.55,14.79-14.22s-4.76-14.23-14.79-14.23h0Zm0,25.4h-7.76v-22.35h7.76c7.64,0,11.26,3.58,11.26,11.18s-3.62,11.18-11.26,11.18h0Zm30.29,3.05h13.17l.49-3.05h-12.96c-4.1,0-5.93-1.83-5.93-5.77v-4.43h15.69v-2.93h-15.69v-9.23h18.61l-.53-3.05h-21.54v19.92c0,5.73,2.93,8.53,8.7,8.53h0Zm41.25,0h12.4l.49-3.05h-12.15c-4.11,0-5.93-1.83-5.93-5.77v-19.63h-3.46v19.96c0,5.73,2.89,8.49,8.66,8.49h0Zm9.53-21.58h2.48l.28-9.31h-3.05l.29,9.31h0Zm15.72-8.62l10.81-4.63v-3.05l-10.81,5.08v2.6h0Zm3.25,30.2h13.17l.49-3.05h-12.96c-4.11,0-5.93-1.83-5.93-5.77v-4.43h15.69v-2.93h-15.69v-9.23h18.61l-.53-3.05h-21.54v19.92c0,5.73,2.93,8.53,8.7,8.53h0Zm28.19,0h12.4l.49-3.05h-12.15c-4.1,0-5.93-1.83-5.93-5.77v-19.63h-3.46v19.96c0,5.73,2.89,8.49,8.66,8.49h0Zm34.59-28.45l-5.77,11.22c-1.34,2.44-2.64,3.66-4.55,3.66s-3.21-1.18-4.55-3.66l-5.81-11.22h-3.94l6.34,12.07c1.83,3.49,3.7,5.32,6.22,5.89v10.49h3.45v-10.49c2.48-.57,4.35-2.44,6.14-5.89l6.34-12.07h-3.86Zm7.48,28.45h14.27c6.46,0,9.83-2.76,9.83-7.56s-3.33-7.07-9.18-8.25l-5.24-1.06c-4.02-.81-6.22-2.2-6.22-4.8,0-2.44,1.63-3.74,5.77-3.74h13.09l-.53-3.05h-12.64c-6.22,0-9.23,2.56-9.23,6.83s3.13,6.67,8.78,7.76l5.16,1.06c4.15.81,6.71,2.24,6.71,5.28s-2.03,4.47-6.42,4.47h-14.63l.49,3.05h0Zm35.52-30.2l10.81-4.63v-3.05l-10.81,5.08v2.6h0Zm3.25,30.2h13.17l.49-3.05h-12.96c-4.11,0-5.93-1.83-5.93-5.77v-4.43h15.69v-2.93h-15.69v-9.23h18.61l-.53-3.05h-21.54v19.92c0,5.73,2.93,8.53,8.7,8.53h0Zm28.23,0h13.17l.49-3.05h-12.97c-4.1,0-5.93-1.83-5.93-5.77v-4.43h15.69v-2.93h-15.69v-9.23h18.62l-.53-3.05h-21.54v19.92c0,5.73,2.93,8.53,8.7,8.53h0Z"/><path class="cls-7" d="m37.13,277.7h1.52v-7.97h9.56v-1.3h-9.56v-6.24h11.34l-.24-1.35h-12.61v16.85h0Zm22.59-13.36h-1.85c-2.36,0-4.04.75-5.3,2.65l-.17-2.53h-1.25v13.24h1.44v-8.86c1.08-2.21,2.67-3.18,5.01-3.18h2.33l-.22-1.32h0Zm7.46-.12c-4.31,0-6.52,2.41-6.52,6.84s1.9,6.88,5.73,6.88c2.62,0,4.48-.82,5.87-2.77l.17,2.53h1.25v-12.23c-2.19-.89-4.38-1.25-6.5-1.25h0Zm-.53,12.4c-3.18,0-4.5-2.05-4.5-5.56s1.66-5.54,5.2-5.54c1.47.02,3.32.29,4.89.89v7.03c-1.2,2.14-2.99,3.18-5.58,3.18h0Zm17.65-12.4c-2.55,0-4.38.77-5.75,2.72l-.17-2.48h-1.25v13.24h1.44v-8.95c1.18-2.19,2.96-3.18,5.51-3.18,2.89,0,3.83,1.27,3.83,4.12v8.02h1.47v-8.11c0-3.78-1.52-5.37-5.08-5.37h0Zm14.77,13.48h3.88l.22-1.3h-4.12c-3.61,0-5.49-1.61-5.49-5.32s1.88-5.32,5.49-5.32h4.09l-.22-1.3h-3.85c-4.53,0-7.03,2.12-7.03,6.62s2.5,6.62,7.03,6.62h0Zm17.9-7.68c0-3.76-1.95-5.8-6.12-5.8s-6.55,2.17-6.55,6.86,2.5,6.62,6.88,6.62h4.6l.22-1.3h-4.82c-3.08,0-4.96-1.3-5.32-4.21l11.1-1.47v-.7h0Zm-11.17.96c.02-3.85,1.71-5.49,5.05-5.49,3.15,0,4.65,1.64,4.65,4.19l-9.7,1.3h0Zm31.49-.96c0-3.76-1.95-5.8-6.11-5.8s-6.55,2.17-6.55,6.86,2.5,6.62,6.88,6.62h4.6l.22-1.3h-4.82c-3.08,0-4.96-1.3-5.32-4.21l11.1-1.47v-.7h0Zm-11.17.96c.02-3.85,1.71-5.49,5.06-5.49,3.15,0,4.65,1.64,4.65,4.19l-9.7,1.3h0Zm19.39,5.46c-2.6,0-3.78-.79-3.78-3.54v-7.15h6.21v-1.3h-6.21v-3.61h-1.08l-.34,3.61h-1.68l-.22,1.3h1.85v7.1c0,3.61,1.57,4.91,5.15,4.91h3.13l.22-1.32h-3.25Zm25.18,1.25h1.64l-4.96-13.58c-.94-2.62-2.17-3.51-4.02-3.51s-3.03.89-4,3.51l-4.93,13.58h1.61l1.9-5.3h10.86l1.9,5.3h0Zm-12.28-6.64l2.33-6.52c.67-1.83,1.42-2.5,2.6-2.5s1.95.67,2.6,2.5l2.36,6.52h-9.89Zm15.68,3.73c0,2.07.87,2.91,2.6,2.91h.72l.24-1.3h-.65c-1.03,0-1.47-.46-1.47-1.71v-15.29h-1.44v15.38h0Zm5.51,0c0,2.07.87,2.91,2.6,2.91h.72l.24-1.3h-.65c-1.04,0-1.47-.46-1.47-1.71v-15.29h-1.44v15.38h0Zm17.13-4.77c0-3.76-1.95-5.8-6.11-5.8s-6.55,2.17-6.55,6.86,2.5,6.62,6.89,6.62h4.6l.22-1.3h-4.81c-3.08,0-4.96-1.3-5.32-4.21l11.1-1.47v-.7h0Zm-11.17.96c.02-3.85,1.71-5.49,5.06-5.49,3.15,0,4.65,1.64,4.65,4.19l-9.7,1.3h0Zm30.39-6.76c-2.41,0-4.17.79-5.54,2.84-.58-1.9-1.97-2.84-4.43-2.84s-4.02.77-5.37,2.72l-.17-2.48h-1.25v13.24h1.44v-8.95c1.18-2.19,2.79-3.18,5.1-3.18,2.65,0,3.49,1.27,3.49,4.12v8.02h1.47v-8.21c0-.29,0-.58-.02-.87,1.18-2.12,2.74-3.06,5.03-3.06,2.65,0,3.51,1.27,3.51,4.12v8.02h1.45v-8.11c0-3.78-1.37-5.37-4.72-5.37h0Zm13.98,0c-4.31,0-6.52,2.41-6.52,6.84s1.9,6.88,5.73,6.88c2.62,0,4.48-.82,5.87-2.77l.17,2.53h1.25v-12.23c-2.19-.89-4.38-1.25-6.5-1.25h0Zm-.53,12.4c-3.18,0-4.5-2.05-4.5-5.56s1.66-5.54,5.2-5.54c1.47.02,3.32.29,4.89.89v7.03c-1.2,2.14-2.99,3.18-5.59,3.18h0Zm16.24-12.4c-4.36,0-6.45,2.33-6.45,6.52s1.85,6.55,5.75,6.55c2.48,0,4.38-.72,5.8-2.58v1.23c0,3.42-1.85,4.86-5.34,4.86h-4.45l.22,1.3h4.21c4.43,0,6.81-1.9,6.81-6.16v-10.47c-2.07-.87-4.29-1.25-6.55-1.25h0Zm-.36,11.77c-3.27,0-4.6-1.95-4.6-5.25s1.57-5.22,5.08-5.22c1.45.02,3.35.27,4.98.87v6.57c-1.2,2.14-3.03,3.03-5.46,3.03h0Zm17.53-11.77c-2.55,0-4.38.77-5.75,2.72l-.17-2.48h-1.25v13.24h1.44v-8.95c1.18-2.19,2.96-3.18,5.51-3.18,2.89,0,3.83,1.27,3.83,4.12v8.02h1.47v-8.11c0-3.78-1.52-5.37-5.08-5.37h0Zm20.4,5.8c0-3.76-1.95-5.8-6.11-5.8s-6.55,2.17-6.55,6.86,2.5,6.62,6.88,6.62h4.6l.22-1.3h-4.81c-3.08,0-4.96-1.3-5.32-4.21l11.1-1.47v-.7h0Zm-11.17.96c.02-3.85,1.71-5.49,5.05-5.49,3.15,0,4.65,1.64,4.65,4.19l-9.7,1.3h0Zm19.26-.38h13.38v-1.28h-13.38v1.28h0Zm29.87,7.34c4.91,0,7.22-2.48,7.22-7.75v-9.34h-1.52v9.34c0,4.33-1.83,6.38-5.71,6.38s-5.7-2.05-5.7-6.38v-9.34h-1.52v9.34c0,5.27,2.31,7.75,7.22,7.75h0Zm17.95-13.72c-2.55,0-4.38.77-5.75,2.72l-.17-2.48h-1.25v13.24h1.44v-8.95c1.18-2.19,2.96-3.18,5.51-3.18,2.89,0,3.83,1.27,3.83,4.12v8.02h1.47v-8.11c0-3.78-1.52-5.37-5.08-5.37h0Zm9.16-2.46c.7,0,1.08-.36,1.08-1.01s-.39-.99-1.08-.99-1.11.36-1.11.99.41,1.01,1.11,1.01h0Zm-.72,15.94h1.44v-13.24h-1.44v13.24h0Zm16.8-7.68c0-3.76-1.95-5.8-6.11-5.8s-6.55,2.17-6.55,6.86,2.5,6.62,6.89,6.62h4.6l.22-1.3h-4.82c-3.08,0-4.96-1.3-5.32-4.21l11.1-1.47v-.7h0Zm-11.17.96c.02-3.85,1.71-5.49,5.05-5.49,3.15,0,4.65,1.64,4.65,4.19l-9.7,1.3h0Zm13.01,6.72h7.03c2.89,0,4.52-1.25,4.52-3.54s-1.32-3.35-4.12-3.8l-3.25-.53c-1.85-.31-2.7-.96-2.7-2.24,0-1.2.72-1.83,2.65-1.83h6.62l-.19-1.3h-6.4c-2.77,0-4.12,1.13-4.12,3.13s1.35,3.11,3.88,3.54l3.18.53c2.09.38,2.96,1.04,2.96,2.5s-1.01,2.24-3.06,2.24h-7.2l.19,1.3h0Zm27.18-13.48c-2.58,0-4.4.84-5.8,2.82l-.17-2.58h-1.25v17.57h1.44v-4.89c1.57.53,3.08.79,4.74.79,4.69,0,6.84-2.41,6.84-6.81s-1.9-6.91-5.8-6.91h0Zm-.99,12.42c-1.4,0-3.2-.24-4.79-.84v-6.98c1.18-2.19,2.91-3.27,5.46-3.27,3.27,0,4.62,2.07,4.62,5.56s-1.71,5.54-5.3,5.54h0Zm15.91,1.3c4.53,0,6.98-2.33,6.98-6.86s-2.45-6.86-6.98-6.86-7.01,2.31-7.01,6.86,2.48,6.86,7.01,6.86h0Zm0-1.32c-3.61,0-5.51-1.78-5.51-5.54s1.9-5.54,5.51-5.54,5.46,1.78,5.46,5.54-1.88,5.54-5.46,5.54h0Zm20.02-12.16v8.96c-1.18,2.19-2.91,3.2-5.32,3.2-2.65,0-3.59-1.23-3.59-4.07v-8.09h-1.47v8.28c0,3.61,1.45,5.2,4.77,5.2,2.45,0,4.26-.82,5.66-2.79l.14,2.55h1.25v-13.24h-1.45Zm13.49-.12h-1.85c-2.36,0-4.05.75-5.3,2.65l-.17-2.53h-1.25v13.24h1.45v-8.86c1.08-2.21,2.67-3.18,5.01-3.18h2.33l-.22-1.32h0Zm7.77,10.45c0,2.07.87,2.91,2.6,2.91h.72l.24-1.3h-.65c-1.04,0-1.47-.46-1.47-1.71v-15.29h-1.44v15.38h0Zm11.09-10.57c-4.31,0-6.52,2.41-6.52,6.84s1.9,6.88,5.73,6.88c2.62,0,4.48-.82,5.87-2.77l.17,2.53h1.25v-12.23c-2.19-.89-4.38-1.25-6.5-1.25h0Zm-.53,12.4c-3.18,0-4.5-2.05-4.5-5.56s1.66-5.54,5.2-5.54c1.47.02,3.32.29,4.89.89v7.03c-1.2,2.14-2.98,3.18-5.59,3.18h0Zm23.71-12.4c-2.58,0-4.41.84-5.8,2.82l-.17-2.58h-1.25v17.57h1.45v-4.89c1.56.53,3.08.79,4.74.79,4.69,0,6.84-2.41,6.84-6.81s-1.9-6.91-5.8-6.91h0Zm-.99,12.42c-1.4,0-3.2-.24-4.79-.84v-6.98c1.18-2.19,2.91-3.27,5.46-3.27,3.27,0,4.62,2.07,4.62,5.56s-1.71,5.54-5.3,5.54h0Zm15.49-12.42c-4.31,0-6.52,2.41-6.52,6.84s1.9,6.88,5.73,6.88c2.62,0,4.48-.82,5.87-2.77l.17,2.53h1.25v-12.23c-2.19-.89-4.38-1.25-6.5-1.25h0Zm-.53,12.4c-3.18,0-4.5-2.05-4.5-5.56s1.66-5.54,5.2-5.54c1.47.02,3.32.29,4.89.89v7.03c-1.2,2.14-2.98,3.18-5.58,3.18h0Zm11.22-14.85c.7,0,1.08-.36,1.08-1.01s-.39-.99-1.08-.99-1.11.36-1.11.99.41,1.01,1.11,1.01h0Zm-.72,15.94h1.44v-13.24h-1.44v13.24h0Zm17.19,0l-5.92-6.88,5.46-6.36h-1.78l-4.65,5.51-4.62-5.51h-1.88l5.49,6.4-5.97,6.84h1.8l5.08-5.99,5.1,5.99h1.88Z"/><path class="cls-7" d="m425.88,320.4h-12.62v1.32h11.14v12.14c0,5.59-2.38,8.38-7.29,8.38s-7.36-2.79-7.36-8.38v-1l-1.45.26v.74c0,6.42,2.92,9.73,8.8,9.73s8.77-3.34,8.77-9.73v-13.46h0Zm25.79,22.48h1.57l-6.65-18.11c-1.29-3.44-2.73-4.69-5.17-4.69s-3.82,1.25-5.11,4.69l-6.65,18.11h1.57l2.67-7.39h15.06l2.7,7.39h0Zm-17.28-8.7l3.28-9.03c1.03-2.73,2.06-3.69,3.76-3.69s2.79.96,3.79,3.69l3.28,9.03h-14.1Zm41.89-13.78v10.34h-16.54v-10.34h-1.45v22.48h1.45v-10.79h16.54v10.79h1.45v-22.48h-1.45Zm18.96,13.71c5.36-.13,8-2.76,8-6.87s-2.76-6.84-8.38-6.84h-9.73v22.48h1.45v-21.17h8.26c4.75,0,6.94,2.12,6.94,5.52s-2.18,5.56-6.94,5.56h-1.83v.96l8.83,9.12h1.96l-8.54-8.77h0Zm20.49,8.77h10.05l.22-1.32h-10.12c-3.85,0-5.59-1.74-5.59-5.49v-4.3h13.39v-1.32h-13.39v-8.74h15.51l-.26-1.32h-16.7v15.74c0,4.5,2.28,6.74,6.87,6.74h0Z"/><path class="cls-7" d="m429.51,376.01h1.57l-6.65-18.11c-1.29-3.44-2.73-4.69-5.17-4.69s-3.82,1.25-5.11,4.69l-6.65,18.11h1.57l2.67-7.39h15.06l2.7,7.39h0Zm-17.28-8.7l3.28-9.03c1.03-2.73,2.06-3.69,3.76-3.69s2.79.96,3.79,3.69l3.28,9.03h-14.1Zm42.24-13.78v20.3l-17.05-20.3h-1.29v22.48h1.38v-20.27l17.06,20.27h1.28v-22.48h-1.38Zm7.13,22.48h11.18c4.98,0,7.55-2.12,7.55-5.75s-2.79-5.4-7.42-6.39l-4.08-.84c-3.69-.77-5.62-2.18-5.62-4.56s1.41-3.63,5.3-3.63h10.44l-.26-1.32h-10.21c-4.69,0-6.75,1.86-6.75,4.95s2.38,4.95,6.81,5.88l4.05.83c3.89.84,6.26,2.18,6.26,5.11s-1.96,4.4-6.1,4.4h-11.4l.26,1.32h0Z"/><path class="cls-7" d="m323.82,345.38c-1.08-2.66-2.57-4.96-4.49-6.92s-4.21-3.47-6.87-4.54c-2.66-1.08-5.6-1.62-8.83-1.62s-6.12.62-8.68,1.87c-2.56,1.25-4.71,2.98-6.46,5.2.61-3.84,1.62-7.52,3.03-11.05,1.41-3.53,3.23-6.65,5.45-9.34,2.22-2.69,4.83-4.9,7.82-6.61,2.99-1.72,6.38-2.68,10.15-2.88v-2.62c-5.92,0-11.16,1.15-15.7,3.43-4.54,2.29-8.36,5.3-11.46,9.04-3.1,3.74-5.45,8.01-7.07,12.82-1.61,4.81-2.42,9.71-2.42,14.69,0,4.04.52,7.86,1.56,11.46,1.04,3.6,2.59,6.75,4.64,9.44,2.05,2.69,4.59,4.83,7.62,6.41,3.03,1.58,6.49,2.37,10.4,2.37,3.3,0,6.34-.56,9.14-1.67,2.79-1.11,5.21-2.66,7.27-4.64,2.05-1.98,3.65-4.34,4.79-7.07,1.14-2.73,1.72-5.7,1.72-8.93s-.54-6.17-1.62-8.83h0Zm-34.58,1.06c.77-2.15,1.82-4.02,3.13-5.6,1.31-1.58,2.83-2.83,4.54-3.74,1.72-.91,3.55-1.36,5.5-1.36s3.65.45,5.3,1.36c1.65.91,3.1,2.19,4.34,3.84,1.24,1.65,2.22,3.6,2.93,5.86.71,2.26,1.06,4.69,1.06,7.32s-.35,5.2-1.06,7.52c-.71,2.32-1.67,4.33-2.88,6.01-1.21,1.68-2.64,3.01-4.29,3.99-1.65.98-3.45,1.46-5.4,1.46s-3.85-.47-5.5-1.41c-1.65-.94-3.1-2.27-4.34-3.99-1.25-1.72-2.26-3.79-3.03-6.21-.77-2.42-1.3-5.08-1.56-7.97.07-2.56.49-4.91,1.26-7.07h0Zm43.41,9.19c1.45,4.24,3.46,7.91,6.06,11,2.59,3.1,5.65,5.52,9.19,7.27,3.53,1.75,7.38,2.62,11.56,2.62s8.04-.88,11.61-2.62c3.57-1.75,6.65-4.17,9.24-7.27,2.59-3.09,4.61-6.76,6.06-11,1.45-4.24,2.17-8.88,2.17-13.93s-.72-9.71-2.17-13.98c-1.45-4.27-3.47-7.94-6.06-11-2.59-3.06-5.65-5.47-9.19-7.22-3.53-1.75-7.42-2.62-11.66-2.62s-8.03.88-11.56,2.62c-3.53,1.75-6.6,4.16-9.19,7.22-2.59,3.06-4.61,6.73-6.06,11-1.45,4.27-2.17,8.93-2.17,13.98s.72,9.69,2.17,13.93h0Zm8.78-26.95c.91-3.84,2.22-7.12,3.94-9.84,1.72-2.73,3.77-4.83,6.16-6.31,2.39-1.48,5.03-2.22,7.93-2.22s5.64.74,8.02,2.22c2.39,1.48,4.44,3.58,6.16,6.31,1.72,2.73,3.03,6.01,3.94,9.84.91,3.84,1.36,8.14,1.36,12.92s-.46,9.1-1.36,12.97c-.91,3.87-2.22,7.18-3.94,9.94-1.72,2.76-3.77,4.88-6.16,6.36-2.39,1.48-5.06,2.22-8.02,2.22s-5.54-.74-7.93-2.22c-2.39-1.48-4.44-3.58-6.16-6.31s-3.03-6.04-3.94-9.94c-.91-3.9-1.36-8.24-1.36-13.02s.45-9.09,1.36-12.92h0Z"/><path class="cls-5" d="m649.39,135.46c-8.59-25.6-23.41-48.14-36.52-70.08-9.47-15.77-18.8-32.21-22.43-47.26-13.33,2.26-26.48,3.76-39.2,4.62,2.75,8.94,6.84,16.98,11.18,24.37,7.24,12.05,15.52,22.74,23.72,33.13,16.39,20.67,33.04,40.24,43.8,62.13,10.93,21.61,14.29,46.37,4.3,70.31-2.8,6.96-6.71,13.84-11.34,20.55-8.71,14.88-21.42,27.96-34.98,39.33-.57.48-.86.63-.92.56,0,.24.46.09,1.54-.7,21.12-15.33,42.74-34.51,55.17-56.89,14.4-24.97,14.66-54.81,5.69-80.07h0Z"/><path d="m621.57,148.92c-4.41-7.85-9.62-15.27-15.09-22.14-5.87-7.42-12.15-14.48-18.59-21.35-.23.19-.46.37-.69.56-5.59,4.79-10.96,9.88-16.02,15.26,6.48,5.5,12.77,11.1,18.67,16.96,5.81,5.76,11.32,11.86,16.12,18.28,3.97-2.02,7.96-3.98,11.95-5.91,1.21-.56,2.42-1.1,3.64-1.65h0Zm-47.33-57.62c-8.61-8.68-17.28-17.17-25.52-25.7-9.43-9.78-18.41-19.68-25.24-29.77-2.8-4.08-5.12-8.22-6.84-12.24-15.73-.31-30.18-1.56-42.69-3.45,3.36,13.98,11.33,25.02,19.26,34.26,10.1,11.5,21.25,21.03,32.39,30.18,10.79,8.8,21.7,17.2,32.26,25.67,4.74-6.18,9.82-12.11,15.16-17.75.4-.41.81-.8,1.21-1.21h0Zm14.49,179.53c-1.86,1.94-2.42,3.08-.8,1.72,21.5-18.03,40.87-40.32,45.54-67.34,2.35-13.25.56-26.13-3.69-38.29-1.4.44-2.8.85-4.2,1.3-3.35,1.13-6.71,2.29-10.05,3.48,5.25,10.36,8.28,21.45,7.71,33.3-.88,23.48-15.85,46.34-34.51,65.82h0Z"/><path class="cls-6" d="m573.03,92.5c-22.41,23.65-40.48,52.29-45.83,84.01-2.14,13.16-1.86,26.98,2.36,39.65-1.16-7.01-.61-14.31,1.12-21.29.88-4.89,2.36-9.69,4.28-14.17,1.14-2.61,2.41-5.14,3.74-7.63,8.85-26.15,27.17-48.8,48.5-67.08,3.88-3.29,7.89-6.39,11.96-9.42-4.28-5.41-8.66-10.83-13.02-16.33-.06-.07-.12-.15-.17-.22-4.44,4.03-8.78,8.15-12.94,12.49h0Zm-35.95,136.18c.14.48.25.96.43,1.43.85,2.14,1.94,4.07,3.17,5.83.88,1,1.77,1.99,2.71,2.93,6.28,6.21,8.2,5.62,4.05.26-3.96-2.92-7.51-6.38-10.36-10.45h0Zm206.16-189.83c-.69-13.49-.23-26.53,1.26-38.85-47.69,12.5-94.84,31.72-134.54,60.48.97,1.64,1.94,3.27,2.91,4.89,3.11,5.21,6.32,10.45,9.51,15.76,36.62-21.55,78.53-34.76,120.86-42.28h0Z"/><path class="cls-4" d="m750.72,87.98c-2.61-10.08-4.63-20.67-5.97-31.63-.17-1.39-.32-2.78-.46-4.16-.19.08-2.93.52-3.95.81,1.22,10.64,1.64,22.2,4.16,31.93-21.86,3.75-42.34,8.28-62.14,14.16.34,1.37.67,2.74.98,4.12,22.07-6.41,44.67-11.33,67.38-15.23h0Zm-93.77,19.55c-16.29,6.02-32.32,13.16-48.52,21.77.64.83,1.29,1.65,1.92,2.49,15.45-7.99,31.53-14.77,48.02-20.58-.45-1.23-.94-2.45-1.42-3.68h0Zm-63.82,34c-.68-.71-1.37-1.41-2.07-2.11-18.88,12.02-36.1,26.6-46.95,45.19-3.3,5.78-5.76,12.1-6.81,18.56,1.27-5.08,3.35-10.03,5.97-14.63,11.4-19.53,29.84-34.64,49.85-47h0Zm-55.62,88.58c-.18-.47-.29-.95-.43-1.43-1.03-1.48-1.98-3.04-2.82-4.68-4.67-9-5.36-19.27-3.58-29.15-2.74,11.03-2.54,22.87,2.74,33.07,2.9,5.66,7.02,10.34,11.86,14.14,2.79,2.19,4.56,3.15,5.28,3.13-5.6-3.6-10.38-8.36-13.05-15.08h0Z"/><path class="cls-2" d="m744.5,84.92c-2.52-9.72-2.93-21.28-4.16-31.93-22.17,6.34-44.05,12.99-65.3,20.94,2.66,8.17,5.21,16.56,7.32,25.14,19.8-5.88,40.28-10.41,62.14-14.16h0Zm-97.3.44c-17.81,8.04-35.04,17.38-51.46,28.67,3.68,4.16,7.3,8.37,10.75,12.74.66.82,1.29,1.68,1.94,2.52,16.2-8.61,32.23-15.75,48.52-21.77-2.89-7.41-6.21-14.78-9.75-22.16h0Zm-56.14,54.05c-.4-.41-.79-.82-1.2-1.23-3.74-3.71-7.66-7.31-11.65-10.86-17.91,14.74-33.9,32.02-43.24,53.35-5.8,13.54-7.68,29.86-.7,43.32.84,1.64,1.79,3.19,2.82,4.67-1.23-4.26-1.01-8.81.14-13.1-1.67-10.55,1.49-21.5,6.9-30.97,10.85-18.58,28.07-33.17,46.95-45.19h0Z"/><path class="cls-1" d="m769.9,136.69c-5.85-10.44-10.96-22.14-15.12-34.82-35.48,9.96-70.71,21.11-104.96,34.92.59,1.74,1.14,3.5,1.64,5.28.05.18.1.37.15.55.45,1.62.86,3.25,1.23,4.89.06.28.13.55.19.83.35,1.61.66,3.23.94,4.85.04.26.09.52.14.78.3,1.85.56,3.72.76,5.59,37.61-10.16,76.27-17.15,115.03-22.88h0Zm-120.08.07s0,0,0,0h0s0,0,0,0h0Zm-31.89,13.81c-23.71,11.48-47.53,24-66.72,42.96-4.65,4.84-8.99,10.15-11.92,16.4-2.94,6.12-4.25,13.63-1.78,20.19,3.25,8.18,9.59,13.47,16.74,17.27,4.45,2.36,4.95,1.23.99-1.61-6.29-4.53-11.36-10.13-12.88-16.96-2.21-11.1,6.55-21.06,15.77-28.39,19.39-14.86,43.53-24.13,67.44-32.19,4.12-1.34,8.27-2.61,12.43-3.85-1.56-6.76-3.93-13.36-6.96-19.71-4.39,1.92-8.77,3.88-13.12,5.91h0Zm13.11-5.91s0,0,0,0h0s0,0,0,0h0Z"/><path class="cls-3" d="m658.07,0l-1.23.08s-.06.02-.09.03c-12.68,4.94-25.62,8.96-38.57,12.21,2.11,12.92,6.19,24.51,10.94,35.39,10.38-6.41,21.14-12.26,32.2-17.59-2.57-10.51-4.03-20.64-3.24-30.12h0Zm-70.15,272.55c.8-.67,1.59-1.37,2.39-2.06-.62.48-1.24.98-1.85,1.46-.62.49-.97.82-1.12,1.04.15-.09.33-.23.58-.44h0Zm.62-.14c-.61.44-1,.67-1.25.75.05.34,1.69-.32,4.11-1.86,21.21-13.43,43.87-30.07,60.65-48.4,18.57-20,31.87-45.11,34.75-71.17-6.68,1.49-13.33,3.07-19.96,4.73-.59,21.05-8.93,42.45-23.05,61.68-3.22,4.44-6.83,8.84-10.7,13.18-12.35,15.71-28.59,29.5-44.56,41.08h0Zm98.19-149.4c-2.06-18.92-7.66-37.05-13.36-54.17-1.14-3.42-2.29-6.83-3.43-10.23-10.07,3.8-19.92,8.05-29.5,12.8,1.29,2.63,2.57,5.25,3.8,7.86,8.46,17.2,16.22,34.25,20.07,51.88,7.44-2.82,14.92-5.53,22.43-8.14h0Z"/></g></svg>